<?xml version="1.0" standalone="no"?>
<!DOCTYPE svg PUBLIC "-//W3C//DTD SVG 20010904//EN"
 "http://www.w3.org/TR/2001/REC-SVG-20010904/DTD/svg10.dtd">
<svg version="1.0" xmlns="http://www.w3.org/2000/svg"
 width="1024.000000pt" height="1023.000000pt" viewBox="0 0 1024.000000 1023.000000"
 preserveAspectRatio="xMidYMid meet">

<g transform="translate(0.000000,1023.000000) scale(0.100000,-0.100000)"
fill="#CC562B" stroke="none">
<path d="M2494 8670 c-11 -4 -33 -22 -47 -40 l-27 -32 0 -805 c0 -786 0 -806
20 -833 45 -64 -37 -60 1329 -60 683 0 1241 -3 1241 -7 -1 -5 -15 -31 -33 -60
-77 -126 -398 -653 -480 -788 -103 -172 -334 -551 -402 -660 -37 -60 -75 -123
-84 -138 -9 -16 -21 -38 -28 -49 -6 -12 -30 -51 -53 -87 -23 -36 -95 -154
-160 -261 -65 -107 -185 -304 -266 -438 -82 -134 -153 -251 -159 -261 -21 -37
-230 -382 -297 -491 -39 -63 -79 -128 -88 -145 -10 -16 -68 -113 -130 -215
-63 -102 -182 -297 -265 -435 -83 -137 -200 -329 -259 -425 -59 -96 -112 -182
-117 -190 -243 -397 -319 -531 -319 -563 0 -45 26 -95 62 -117 33 -20 42 -20
3012 -20 2949 0 2979 0 3011 20 17 11 37 32 44 46 9 20 12 218 11 821 0 867 2
831 -57 870 -26 17 -108 18 -1365 21 -736 1 -1338 6 -1338 10 0 4 11 24 25 44
14 20 25 39 25 43 0 6 227 381 286 472 19 29 34 55 34 57 0 2 44 75 97 162 53
88 124 206 158 264 34 58 98 164 142 235 44 72 127 209 185 305 130 217 579
960 638 1055 23 39 74 124 113 190 39 66 75 122 79 123 4 2 8 7 8 12 0 4 50
91 112 192 61 100 120 199 132 219 12 20 88 146 169 280 82 134 152 251 157
259 5 8 65 107 133 220 68 113 132 220 143 238 19 32 233 386 266 440 9 15 35
59 58 97 22 39 59 99 81 135 61 97 79 136 79 170 0 43 -25 87 -63 110 -32 20
-73 20 -2912 19 -1584 0 -2889 -4 -2901 -9z m240 -259 c8 -13 -20 -45 -32 -37
-20 12 -14 46 7 46 11 0 22 -4 25 -9z m170 0 c3 -4 -1 -17 -9 -27 -10 -15 -16
-16 -26 -7 -6 6 -9 19 -6 27 7 17 32 22 41 7z m173 -7 c10 -27 -14 -40 -37
-19 -16 14 -17 20 -8 27 20 12 38 9 45 -8z m176 10 c11 -11 -5 -34 -23 -34
-18 0 -34 23 -23 34 4 3 14 6 23 6 9 0 19 -3 23 -6z m172 -14 c0 -8 -10 -16
-22 -18 -22 -3 -32 16 -16 32 12 11 38 2 38 -14z m2221 4 c-3 -8 -40 -72 -82
-142 -92 -152 -198 -369 -250 -509 -21 -57 -40 -103 -44 -103 -3 0 -18 26 -34
58 -152 311 -406 548 -741 689 l-50 21 604 1 c544 1 603 -1 597 -15z m380
-133 c308 -274 513 -622 600 -1021 35 -156 44 -431 20 -601 -42 -298 -152
-620 -313 -916 l-67 -123 -31 58 c-51 96 -135 210 -255 346 -63 72 -117 133
-120 136 -15 12 -161 201 -204 263 -104 151 -184 351 -206 515 -16 119 -7 315
20 442 45 207 146 461 277 690 92 162 173 290 183 290 4 0 47 -36 96 -79z
m-3206 9 c0 -24 -26 -38 -42 -22 -16 16 -2 42 22 42 13 0 20 -7 20 -20z m174
4 c8 -21 -1 -34 -24 -34 -20 0 -30 17 -22 38 6 17 39 15 46 -4z m174 -7 c4
-20 -25 -34 -40 -19 -15 15 -1 44 19 40 10 -2 19 -11 21 -21z m748 -79 c86
-60 132 -183 105 -285 -17 -63 -70 -133 -126 -167 -45 -28 -58 -31 -135 -31
-96 0 -140 18 -197 77 -75 78 -95 204 -49 304 22 47 29 54 83 74 58 22 209 58
249 59 12 1 43 -14 70 -31z m480 -42 c91 -36 219 -107 256 -141 23 -21 25 -28
17 -74 -11 -72 -35 -115 -90 -165 -82 -74 -193 -87 -296 -36 -98 49 -146 128
-146 240 0 77 24 139 73 188 40 40 59 39 186 -12z m-1666 8 c11 -12 11 -18 -2
-31 -19 -18 -38 -10 -38 16 0 33 20 40 40 15z m174 -1 c8 -19 -17 -48 -33 -39
-12 8 -15 39 -4 49 12 12 31 7 37 -10z m166 3 c0 -14 -29 -31 -38 -21 -6 6 18
35 29 35 5 0 9 -6 9 -14z m310 -181 c0 -155 -101 -263 -255 -272 -99 -6 -106
3 -57 68 75 101 282 286 304 273 4 -3 8 -34 8 -69z m-562 42 c4 -20 -25 -34
-40 -19 -15 15 -1 44 19 40 10 -2 19 -11 21 -21z m-83 -122 c0 -23 -34 -33
-45 -14 -13 20 1 40 24 37 13 -2 21 -10 21 -23z m2121 -80 c44 -52 55 -85 18
-54 -22 17 -74 89 -74 101 0 15 8 8 56 -47z m-1681 -220 c156 -26 251 -221
181 -372 -14 -28 -34 -57 -46 -63 -20 -11 -350 -13 -391 -3 -10 3 -30 29 -44
58 l-26 52 17 73 c9 40 28 103 43 139 22 55 33 69 68 89 42 23 116 42 143 37
8 -2 33 -6 55 -10z m706 -21 c96 -48 158 -161 146 -266 -8 -61 -45 -138 -72
-148 -26 -10 -308 -13 -364 -4 -35 6 -47 14 -69 48 -24 36 -27 51 -27 127 0
71 4 93 24 133 36 69 105 120 184 136 58 11 123 2 178 -26z m628 9 c86 -34
142 -106 159 -202 16 -86 -24 -212 -70 -224 -26 -7 -359 -7 -386 -1 -37 10
-75 102 -75 182 0 194 191 320 372 245z m518 -50 c17 -38 38 -93 46 -123 23
-77 49 -238 42 -250 -4 -6 -59 -10 -131 -10 -121 0 -126 1 -149 26 -30 32 -55
105 -55 160 0 53 32 139 66 178 25 28 118 85 140 86 6 0 25 -30 41 -67z m207
-847 c3 -13 9 -32 12 -43 5 -14 1 -12 -20 8 -18 16 -25 31 -20 42 9 24 21 21
28 -7z m127 -293 c53 -98 107 -179 175 -265 l54 -67 -33 -22 c-46 -32 -76 -66
-100 -113 -28 -53 -30 -184 -4 -233 52 -97 140 -153 242 -153 74 0 135 26 191
81 l42 41 29 -44 c71 -102 99 -190 88 -271 -6 -37 -15 -55 -43 -82 -21 -19
-39 -35 -42 -35 -3 0 -16 24 -30 52 -63 132 -241 186 -365 113 -125 -73 -170
-235 -101 -367 18 -35 22 -50 13 -53 -47 -17 -307 -75 -331 -75 -6 1 3 8 19
17 158 83 195 303 72 431 -54 57 -102 77 -187 77 -90 0 -138 -22 -197 -89
-135 -154 -45 -410 156 -442 23 -4 40 -8 38 -10 -2 -2 -50 -10 -108 -19 -160
-23 -346 -55 -422 -71 -37 -8 -90 -14 -116 -14 -53 0 -103 -14 -141 -40 -14
-9 -76 -38 -139 -63 -86 -35 -118 -44 -128 -35 -18 15 -16 35 5 66 10 15 56
89 101 164 l83 138 25 -31 c89 -105 277 -115 373 -19 63 63 84 113 84 200 0
65 -4 83 -29 129 -35 64 -77 100 -142 123 -27 9 -47 21 -46 26 6 27 78 132 94
137 51 17 129 147 129 218 0 11 34 76 77 146 104 173 155 254 164 265 4 4 38
0 76 -9 64 -17 71 -17 125 -1 112 32 198 134 198 232 0 24 2 44 4 44 2 0 23
-35 47 -77z m416 -1665 c-36 -57 -86 -139 -112 -183 -26 -44 -62 -105 -81
-135 -19 -30 -106 -174 -192 -320 -87 -146 -180 -302 -208 -348 -27 -45 -68
-115 -91 -155 -23 -39 -59 -99 -80 -132 -20 -33 -65 -106 -98 -162 -110 -185
-314 -389 -555 -553 -79 -53 -349 -206 -455 -256 l-90 -43 -22 21 c-29 27
-153 210 -186 273 -55 106 -106 254 -127 365 -55 289 13 596 199 890 51 82
164 207 250 278 88 72 289 176 421 217 121 38 326 79 540 110 400 57 670 122
867 209 43 19 79 33 81 31 2 -2 -25 -50 -61 -107z m483 -1695 c0 -10 -7 -49
-15 -88 -59 -277 -231 -557 -452 -737 -265 -216 -546 -320 -864 -320 -200 0
-363 37 -549 124 -102 48 -309 178 -344 217 -17 19 -15 21 76 66 206 105 395
222 567 355 103 78 293 264 351 343 l42 57 594 0 c559 0 594 -1 594 -17z m410
2 c0 -16 30 -35 55 -35 8 0 21 11 27 25 9 20 18 25 49 25 29 0 39 -5 44 -20 3
-11 18 -23 32 -26 21 -6 31 -2 48 19 28 36 76 37 99 2 9 -14 25 -25 36 -25 10
0 27 11 38 25 13 16 30 25 47 25 17 0 34 -9 47 -25 11 -15 30 -25 44 -25 16 0
28 8 36 25 9 20 18 25 48 25 30 0 39 -5 48 -26 15 -32 62 -31 77 4 13 29 85
33 85 5 0 -40 -13 -63 -34 -63 -44 0 -65 -39 -41 -76 13 -21 14 -28 2 -51 -9
-16 -17 -22 -21 -14 -11 17 -63 14 -70 -5 -11 -29 -6 -53 15 -67 20 -14 20
-16 4 -40 -16 -25 -17 -25 -45 -9 -27 16 -30 15 -49 -2 -26 -24 -27 -50 -1
-74 18 -17 18 -20 4 -41 -12 -16 -19 -20 -27 -12 -17 17 -52 13 -73 -10 -17
-19 -17 -22 -2 -49 15 -27 15 -30 -1 -44 -10 -9 -29 -16 -42 -16 -31 0 -49
-17 -49 -47 0 -16 -20 -39 -67 -79 -38 -30 -76 -60 -86 -65 -15 -9 -17 -7 -12
13 8 32 -25 63 -59 54 -44 -11 -46 -74 -3 -93 l22 -10 -25 -13 c-14 -8 -38
-13 -54 -12 -30 3 -66 -22 -66 -44 0 -8 -35 -31 -78 -53 -65 -33 -86 -39 -119
-34 -37 5 -42 3 -54 -22 -9 -17 -28 -33 -50 -40 -35 -13 -35 -12 -31 14 5 34
-17 54 -55 49 -24 -3 -28 -8 -31 -40 -3 -30 1 -37 19 -43 18 -6 3 -14 -71 -36
-100 -30 -130 -35 -130 -20 0 5 -10 11 -22 14 -26 7 -68 -16 -68 -37 0 -8 -18
-18 -41 -24 -38 -9 -41 -9 -36 8 6 24 -19 60 -43 60 -30 0 -53 -30 -46 -61 6
-30 2 -32 -89 -44 l-50 -7 37 25 c20 14 71 51 113 83 57 43 79 54 87 46 15
-15 51 -15 66 0 15 15 16 54 2 63 -19 12 21 55 51 55 29 0 55 30 46 54 -6 14
30 59 59 74 12 6 24 25 27 41 4 17 25 49 47 71 22 22 40 49 40 59 0 29 33 81
51 81 25 0 42 27 35 55 -4 14 -4 36 0 50 5 20 11 24 29 19 25 -6 55 18 55 44
0 8 -8 25 -19 36 -18 21 -18 23 10 131 15 61 28 122 29 136 0 21 6 28 29 32
18 4 32 14 36 27 5 16 15 20 46 20 28 0 39 -4 39 -15z m1077 -1232 c-2 -2
-249 -2 -548 -1 l-543 3 134 67 c143 71 247 133 345 207 33 25 65 49 70 53 35
25 148 129 193 176 129 137 284 364 329 480 18 47 18 43 21 -467 1 -283 1
-516 -1 -518z m-3756 129 c26 -17 84 -54 130 -82 l84 -50 -704 0 c-387 0 -702
2 -700 4 2 2 69 23 149 46 194 55 494 157 660 223 l135 53 100 -81 c55 -45
121 -96 146 -113z"/>
<path d="M5010 6084 c-127 -23 -220 -133 -220 -258 0 -80 14 -125 51 -172 51
-65 109 -96 187 -102 55 -3 77 0 118 17 64 28 129 93 149 150 18 53 19 143 1
193 -39 110 -176 192 -286 172z"/>
<path d="M6591 2961 c-16 -29 -13 -48 10 -64 42 -30 88 8 66 54 -16 32 -61 38
-76 10z"/>
<path d="M6774 2972 c-29 -20 -25 -65 8 -83 25 -13 68 13 68 41 0 36 -46 63
-76 42z"/>
<path d="M6942 2968 c-7 -7 -12 -25 -12 -40 0 -49 74 -60 86 -13 12 49 -40 87
-74 53z"/>
<path d="M7115 2964 c-34 -35 -1 -83 48 -70 21 5 27 12 27 34 0 49 -42 69 -75
36z"/>
<path d="M7278 2956 c-19 -44 15 -82 60 -65 25 9 31 56 10 77 -21 21 -57 14
-70 -12z"/>
<path d="M6507 2843 c-4 -3 -7 -21 -7 -39 0 -27 5 -35 25 -40 48 -12 73 13 61
61 -5 20 -13 25 -40 25 -18 0 -36 -3 -39 -7z"/>
<path d="M6683 2843 c-16 -6 -17 -55 -1 -71 28 -28 78 -7 78 33 0 37 -36 55
-77 38z"/>
<path d="M6852 2838 c-31 -31 9 -94 49 -79 49 17 41 91 -9 91 -15 0 -33 -5
-40 -12z"/>
<path d="M7021 2832 c-23 -43 27 -91 68 -65 20 13 26 50 11 69 -18 20 -67 18
-79 -4z"/>
<path d="M7196 2834 c-20 -19 -20 -24 0 -52 27 -39 84 -23 84 23 0 43 -53 61
-84 29z"/>
<path d="M6596 2714 c-30 -30 -9 -84 33 -84 41 0 58 70 22 90 -27 14 -37 13
-55 -6z"/>
<path d="M6766 2711 c-35 -38 9 -94 58 -75 25 10 31 52 11 74 -23 25 -47 25
-69 1z"/>
<path d="M6948 2719 c-25 -14 -24 -65 1 -79 11 -5 24 -10 30 -10 16 0 41 30
41 50 0 21 -25 50 -43 50 -7 0 -20 -5 -29 -11z"/>
<path d="M7115 2710 c-36 -40 7 -96 55 -70 27 14 27 65 1 80 -27 14 -35 13
-56 -10z"/>
<path d="M6499 2579 c-8 -16 -8 -28 0 -46 9 -19 17 -24 43 -21 40 4 56 28 40
62 -15 34 -66 37 -83 5z"/>
<path d="M6682 2588 c-29 -29 -8 -80 33 -80 30 0 45 15 45 48 0 26 -18 44 -45
44 -12 0 -26 -5 -33 -12z"/>
<path d="M6849 2579 c-18 -34 3 -69 41 -69 42 0 62 40 35 70 -24 26 -61 26
-76 -1z"/>
<path d="M7034 2592 c-36 -25 -20 -82 24 -82 33 0 52 16 52 45 0 37 -44 59
-76 37z"/>
<path d="M6422 2458 c-30 -30 -3 -83 39 -76 29 4 43 29 35 61 -5 21 -12 27
-34 27 -15 0 -33 -5 -40 -12z"/>
<path d="M6588 2446 c-14 -33 -5 -54 27 -62 39 -10 70 23 56 59 -14 37 -66 39
-83 3z"/>
<path d="M6758 2446 c-14 -32 -5 -54 27 -62 35 -9 53 1 61 31 8 33 -11 55 -47
55 -21 0 -32 -7 -41 -24z"/>
<path d="M6937 2463 c-11 -11 -8 -58 5 -71 28 -28 78 -7 78 33 0 12 -5 26 -12
33 -13 13 -60 16 -71 5z"/>
<path d="M6340 2335 c-17 -20 -16 -65 1 -76 21 -13 46 -11 63 7 21 21 20 47
-2 67 -23 21 -46 22 -62 2z"/>
<path d="M6510 2335 c-27 -33 -9 -85 31 -85 23 0 49 26 49 50 0 41 -55 65 -80
35z"/>
<path d="M6688 2339 c-29 -16 -23 -67 8 -81 33 -15 58 -1 62 38 5 43 -32 66
-70 43z"/>
<path d="M6252 2208 c-13 -13 -15 -37 -6 -62 7 -19 55 -21 72 -4 28 28 7 78
-33 78 -12 0 -26 -5 -33 -12z"/>
<path d="M6422 2208 c-19 -19 -14 -55 10 -72 19 -13 25 -14 43 -2 24 16 31 51
15 72 -15 17 -52 18 -68 2z"/>
<path d="M6592 2208 c-16 -16 -15 -53 2 -67 8 -7 27 -11 43 -9 25 3 28 7 28
43 0 37 -2 40 -30 43 -17 2 -36 -3 -43 -10z"/>
<path d="M6160 2075 c-20 -25 -1 -69 31 -73 32 -4 51 18 47 55 -2 23 -8 29
-34 31 -19 2 -36 -3 -44 -13z"/>
</g>
</svg>
